<?xml version="1.0" standalone="no"?>
<!DOCTYPE svg PUBLIC "-//W3C//DTD SVG 20010904//EN"
 "http://www.w3.org/TR/2001/REC-SVG-20010904/DTD/svg10.dtd">
<svg version="1.0" xmlns="http://www.w3.org/2000/svg"
 width="2509.000000pt" height="1819.000000pt" viewBox="0 0 2509.000000 1819.000000"
 preserveAspectRatio="xMidYMid meet">

<g transform="translate(0.000000,1819.000000) scale(0.100000,-0.100000)"
fill="#000000" stroke="none">
<path d="M8300 17663 c-711 -48 -1361 -218 -1934 -505 -958 -479 -1798 -1327
-2305 -2328 -406 -799 -598 -1630 -578 -2495 15 -612 125 -1161 349 -1727 114
-290 362 -779 686 -1353 204 -364 169 -318 616 -810 170 -187 414 -457 542
-601 128 -143 250 -272 271 -285 21 -14 61 -34 88 -45 49 -18 99 -19 1752 -19
l1702 0 28 21 c15 11 36 36 45 55 14 28 306 1151 1134 4364 47 181 103 397
126 480 67 250 144 381 275 468 99 66 177 89 293 90 178 0 311 -52 426 -167
115 -116 164 -223 209 -461 14 -71 245 -1347 515 -2835 496 -2734 649 -3572
654 -3578 7 -6 149 253 332 604 380 732 391 751 496 831 60 46 96 66 177 97
l56 21 2365 5 c1755 4 2373 8 2397 17 17 6 64 28 103 49 113 59 179 126 609
613 797 904 1427 1996 1694 2936 240 844 257 1650 51 2505 -270 1122 -838
2040 -1735 2801 -694 590 -1494 964 -2376 1113 -301 51 -431 60 -813 60 -370
0 -504 -9 -790 -55 -1105 -177 -2113 -706 -2844 -1494 -92 -100 -331 -372
-364 -415 -4 -6 -20 12 -190 218 -416 503 -860 870 -1456 1202 -757 422 -1564
635 -2371 628 -104 -1 -210 -3 -235 -5z"/>
<path d="M11303 9518 c-21 -26 -59 -169 -368 -1373 -174 -676 -325 -1261 -336
-1300 -72 -243 -168 -378 -322 -450 -155 -73 -59 -69 -1652 -72 -786 -1 -1442
-3 -1456 -3 -14 0 -33 -6 -43 -13 -17 -13 -17 -15 4 -58 13 -24 57 -80 100
-124 42 -44 281 -307 531 -585 250 -278 1134 -1259 1965 -2180 830 -921 1646
-1828 1814 -2015 369 -411 560 -619 608 -663 255 -232 585 -221 840 28 78 76
4924 5454 4964 5508 41 57 43 76 11 91 -42 19 -3064 16 -3128 -4 -65 -19 -118
-57 -153 -107 -16 -24 -122 -225 -237 -448 -114 -223 -316 -612 -448 -865
-609 -1166 -584 -1123 -690 -1221 -111 -104 -214 -144 -367 -144 -302 1 -511
169 -590 478 -11 42 -81 417 -155 832 -386 2146 -850 4673 -861 4692 -7 12
-20 10 -31 -4z"/>
</g>
</svg>
