<svg xmlns="http://www.w3.org/2000/svg" xmlns:xlink="http://www.w3.org/1999/xlink" width="500" height="129" viewBox="0 0 500 129">
  <defs>
    <style>
      .cls-1, .cls-4 {
        fill: none;
      }

      .cls-2 {
        clip-path: url(#clip-path);
      }

      .cls-3 {
        fill: #fff;
      }

      .cls-4 {
        stroke: #f60000;
        stroke-width: 8px;
      }
    </style>
    <clipPath id="clip-path">
      <rect class="cls-1" width="500" height="129"/>
    </clipPath>
  </defs>
  <g id="Repeat_Grid_1" data-name="Repeat Grid 1" class="cls-2">
    <g id="Group_1" data-name="Group 1" transform="translate(-122 -187)">
      <rect id="Rectangle_1" data-name="Rectangle 1" class="cls-3" width="500" height="129" transform="translate(122 187)"/>
      <path id="hero-shape" class="cls-4" d="M3,146.1c17.1-8.8,33.5-17.8,51.4-17.8,15.6,0,17.1,18.1,30.2,18.1,22.9,0,36-18.6,53.9-18.6,17.1,0,21.3,18.5,37.5,18.5,21.3,0,31.8-18.6,49-18.6,22.1,0,18.8,18.8,36.8,18.8,18.8,0,37.5-18.6,49-18.6,20.4,0,17.1,19,36.8,19,22.9,0,36.8-20.6,54.7-18.6,17.7,1.4,7.1,19.5,33.5,18.8,17.1,0,47.2-6.5,61.1-15.6" transform="translate(122 164.3)"/>
    </g>
  </g>
</svg>
