<svg xmlns="http://www.w3.org/2000/svg" width="497.921" height="27.419" viewBox="0 0 497.921 27.419">
  <path id="hero-shape" d="M3,146.1c17.1-8.8,33.5-17.8,51.4-17.8,15.6,0,17.1,18.1,30.2,18.1,22.9,0,36-18.6,53.9-18.6,17.1,0,21.3,18.5,37.5,18.5,21.3,0,31.8-18.6,49-18.6,22.1,0,18.8,18.8,36.8,18.8,18.8,0,37.5-18.6,49-18.6,20.4,0,17.1,19,36.8,19,22.9,0,36.8-20.6,54.7-18.6,17.7,1.4,7.1,19.5,33.5,18.8,17.1,0,47.2-6.5,61.1-15.6" transform="translate(-1.17 -123.7)" fill="none" stroke="#ff1616" stroke-width="8"/>
</svg>
